Coordinates
version=1
nRows=6
nColumns=63
inDegrees=yes

Units are S.I. units (second, meters, Newtons, ...)
If the header above contains a line with 'inDegrees', this indicates whether rotational values are in degrees (yes) or radians (no).

endheader
time	pelvis_tilt	pelvis_list	pelvis_rotation	pelvis_tx	pelvis_ty	pelvis_tz	hip_flexion_r	hip_adduction_r	hip_rotation_r	knee_angle_r	knee_angle_r_beta	ankle_angle_r	subtalar_angle_r	mtp_angle_r	hip_flexion_l	hip_adduction_l	hip_rotation_l	knee_angle_l	knee_angle_l_beta	ankle_angle_l	subtalar_angle_l	mtp_angle_l	L5_S1_Flex_Ext	L5_S1_Lat_Bending	L5_S1_axial_rotation	L4_L5_Flex_Ext	L4_L5_Lat_Bending	L4_L5_axial_rotation	L3_L4_Flex_Ext	L3_L4_Lat_Bending	L3_L4_axial_rotation	L2_L3_Flex_Ext	L2_L3_Lat_Bending	L2_L3_axial_rotation	L1_L2_Flex_Ext	L1_L2_Lat_Bending	L1_L2_axial_rotation	L1_T12_Flex_Ext	L1_T12_Lat_Bending	L1_T12_axial_rotation	Abs_r3	Abs_r2	Abs_r1	Abs_t1	Abs_t2	neck_flexion	neck_bending	neck_rotation	arm_flex_r	arm_add_r	arm_rot_r	elbow_flex_r	pro_sup_r	wrist_flex_r	wrist_dev_r	arm_flex_l	arm_add_l	arm_rot_l	elbow_flex_l	pro_sup_l	wrist_flex_l	wrist_dev_l
      5.35000000	     -0.91746752	    -14.90167501	     84.03879212	      0.30561188	      0.70951186	      0.92167802	     25.22709126	     -1.71574336	    -24.49363688	     15.27245314	      0.26655459	     31.14469082	     17.59494407	      0.00000000	     12.78946057	     -5.37323085	     24.97298490	      0.72645809	      0.01267909	     -1.30464531	    -13.94762642	      0.00000000	     -0.12152585	      1.09854813	     -0.67007387	     -0.22568566	      1.46106902	     -0.71195349	     -0.19965482	      2.67100994	     -0.71195349	     -0.13889189	      2.67100994	     -0.58631464	     -0.11284891	      2.24015936	     -0.54443502	     -0.06943987	      1.70165106	     -0.50255540	     -0.86804700	     12.42699621	     -3.72674985	      0.00000000	      0.00000000	     19.80941051	     -1.60486619	      1.68551926	     19.69760226	     -9.65255243	     69.75372964	     41.81656213	     88.35139359	     -8.95322993	      1.57974149	     14.15073223	     -2.13672607	     55.95493181	     32.30753581	     56.68276537	     -2.06653306	     -6.59647551
      5.36666667	     -0.93644858	    -14.31935348	     84.14548089	      0.30655858	      0.71096064	      0.91863047	     23.87287103	     -1.47446145	    -24.63984772	     13.96308142	      0.24370174	     30.76557880	     17.82836439	      0.00000000	     12.04639364	     -5.26956881	     25.27577484	      0.87221079	      0.01522295	     -1.92163711	    -13.88339273	      0.00000000	     -0.14042850	      1.04600865	     -0.57525364	     -0.26078977	      1.39119150	     -0.61120699	     -0.23070999	      2.54326543	     -0.61120699	     -0.16049573	      2.54326543	     -0.50334693	     -0.13040191	      2.13302084	     -0.46739358	     -0.08024085	      1.62026740	     -0.43144023	     -1.00306675	     11.83265903	     -3.19938817	      0.00000000	      0.00000000	     20.02236066	      0.01983810	      2.05423066	     19.21239193	     -9.62268049	     69.10801018	     41.72859609	     88.19007058	     -9.73767156	      0.85969333	     13.78261400	     -2.09139163	     55.55386783	     32.41112549	     55.71668219	     -2.00897134	     -6.58975275
      5.38333333	     -0.80064402	    -13.62072941	     84.43351011	      0.30740482	      0.71235945	      0.91542600	     22.31270679	     -1.12841271	    -25.04368643	     12.59679820	      0.21985560	     30.28034093	     17.86460182	      0.00000000	     11.19727165	     -5.27413615	     26.26884771	      1.14317506	      0.01995217	     -2.31882952	    -14.15499742	      0.00000000	     -0.16800365	      1.00882862	     -0.44822919	     -0.31199958	      1.34174207	     -0.47624351	     -0.27601319	      2.45286591	     -0.47624351	     -0.19201137	      2.45286591	     -0.39220054	     -0.15600819	      2.05720333	     -0.36418622	     -0.09599728	      1.56267554	     -0.33617189	     -1.20003326	     11.41207114	     -2.49291628	      0.00000000	      0.00000000	     20.28747797	      1.87452020	      3.01874346	     18.53083494	     -9.72797372	     68.13748219	     41.58133246	     88.12264025	    -10.58102678	     -0.21763439	     13.39262607	     -1.98251420	     54.90743194	     32.78320809	     52.92232976	     -1.78359775	     -5.85829549
      5.40000000	     -0.85231758	    -12.81248756	     84.55615952	      0.30839662	      0.71356922	      0.91237013	     20.70327179	     -0.95765255	    -25.37133004	     11.34482798	      0.19800460	     29.79493317	     18.02254294	      0.00000000	     10.35430768	     -5.02375322	     26.72840093	      1.75586313	      0.03064559	     -1.93845373	    -14.15775379	      0.00000000	     -0.20779273	      0.93569262	     -0.25044231	     -0.38589189	      1.24447119	     -0.26609495	     -0.34138268	      2.27504304	     -0.26609495	     -0.23748632	      2.27504304	     -0.21913702	     -0.19295633	      1.90806440	     -0.20348438	     -0.11873277	      1.44938787	     -0.18783173	     -1.48424272	     10.58474209	     -1.39288499	      0.00000000	      0.00000000	     20.82026563	      3.86790240	      3.18807285	     17.88419555	     -9.89737245	     67.27689427	     41.74996911	     87.93554881	    -10.99140048	     -0.39302134	     13.00720822	     -1.93708669	     54.04234222	     33.12096044	     51.67771834	     -1.85854258	     -5.77703929
      5.41666667	     -0.57116680	    -12.00257775	     85.01042917	      0.30934323	      0.71447260	      0.90889463	     18.78460887	     -0.39222491	    -25.58827608	      9.60401778	      0.16762173	     29.35447036	     17.78062623	      0.00000000	      9.56804945	     -5.06465831	     27.25760709	      2.48862605	      0.04343472	     -0.75719647	    -13.87596328	      0.00000000	     -0.23189395	      0.90230460	     -0.07707018	     -0.43065026	      1.20006512	     -0.08188707	     -0.38097857	      2.19386341	     -0.08188707	     -0.26503160	      2.19386341	     -0.06743641	     -0.21533672	      1.83997954	     -0.06261952	     -0.13250420	      1.39766983	     -0.05780264	     -1.65639530	     10.20705011	     -0.42864123	      0.00000000	      0.00000000	     21.30607948	      5.58150645	      3.85501309	     16.65237256	    -10.10120732	     65.19196636	     42.00584396	     88.09463921	    -10.95240683	     -0.92489230	     12.67474773	     -1.92980657	     53.78344033	     33.88313056	     48.38306475	     -1.99751071	     -4.07828737
      5.43333333	     -0.41017904	    -11.20547976	     85.31605734	      0.30996971	      0.71506936	      0.90581002	     17.05742991	     -0.01825852	    -25.54217292	      8.20321202	      0.14317306	     29.03872508	     17.55901993	      0.00000000	      9.02323180	     -4.89699065	     26.67997998	      3.64779550	      0.06366604	      1.86772041	    -12.81879667	      0.00000000	     -0.24977016	      0.85617701	      0.13863143	     -0.46384817	      1.13871543	      0.14729590	     -0.41034740	      2.08170879	      0.14729590	     -0.28546232	      2.08170879	      0.12130250	     -0.23193657	      1.74591617	      0.11263804	     -0.14271867	      1.32621819	      0.10397357	     -1.78408329	      9.68524562	      0.77102643	      0.00000000	      0.00000000	     21.92721942	      6.78840372	      3.92534672	     15.53112224	    -10.40038572	     63.35922338	     42.42748847	     88.30810668	    -10.49801334	     -1.48435181	     13.28370829	     -2.21024737	     57.92390253	     34.32840865	     41.59931151	     -3.10590795	     -4.54197900
